<svg xmlns="http://www.w3.org/2000/svg" xmlns:xlink="http://www.w3.org/1999/xlink" width="500" zoomAndPan="magnify" viewBox="0 0 375 374.999991" height="500" preserveAspectRatio="xMidYMid meet" version="1.0"><defs><g/><clipPath id="2482936187"><path d="M 182 106.761719 L 193 106.761719 L 193 217 L 182 217 Z M 182 106.761719 " clip-rule="nonzero"/></clipPath><clipPath id="a8e2a68712"><path d="M 132.398438 156 L 242.648438 156 L 242.648438 168 L 132.398438 168 Z M 132.398438 156 " clip-rule="nonzero"/></clipPath></defs><g clip-path="url(#2482936187)"><path fill="#ffffff" d="M 192.761719 109.890625 C 192.761719 109.054688 192.429688 108.253906 191.839844 107.660156 C 191.246094 107.070312 190.445312 106.738281 189.609375 106.738281 C 188.269531 106.738281 186.707031 106.738281 185.367188 106.738281 C 183.632812 106.738281 182.226562 108.144531 182.226562 109.878906 C 182.226562 125.839844 182.226562 197.796875 182.226562 213.789062 C 182.226562 214.617188 182.558594 215.414062 183.148438 216.007812 C 183.742188 216.601562 184.542969 216.929688 185.378906 216.929688 C 186.714844 216.929688 188.273438 216.929688 189.609375 216.929688 C 190.445312 216.929688 191.246094 216.601562 191.839844 216.007812 C 192.429688 215.414062 192.761719 214.617188 192.761719 213.789062 C 192.761719 197.808594 192.761719 125.867188 192.761719 109.890625 Z M 192.761719 109.890625 " fill-opacity="1" fill-rule="evenodd"/></g><g clip-path="url(#a8e2a68712)"><path fill="#ffffff" d="M 135.550781 156.566406 C 134.714844 156.566406 133.914062 156.898438 133.320312 157.488281 C 132.730469 158.082031 132.398438 158.882812 132.398438 159.71875 C 132.398438 161.058594 132.398438 162.621094 132.398438 163.960938 C 132.398438 165.695312 133.804688 167.101562 135.539062 167.101562 C 151.5 167.101562 223.457031 167.101562 239.449219 167.101562 C 240.277344 167.101562 241.074219 166.769531 241.667969 166.179688 C 242.261719 165.585938 242.589844 164.785156 242.589844 163.949219 C 242.589844 162.613281 242.589844 161.054688 242.589844 159.71875 C 242.589844 158.882812 242.261719 158.082031 241.667969 157.488281 C 241.074219 156.898438 240.277344 156.566406 239.449219 156.566406 C 223.46875 156.566406 151.527344 156.566406 135.550781 156.566406 Z M 135.550781 156.566406 " fill-opacity="1" fill-rule="evenodd"/></g><path fill="#ffffff" d="M 236.03125 161.832031 C 236.03125 163.421875 235.953125 165.007812 235.796875 166.589844 C 235.640625 168.171875 235.410156 169.742188 235.097656 171.300781 C 234.789062 172.863281 234.402344 174.402344 233.941406 175.921875 C 233.480469 177.445312 232.945312 178.941406 232.335938 180.410156 C 231.726562 181.878906 231.050781 183.3125 230.300781 184.714844 C 229.550781 186.117188 228.734375 187.480469 227.851562 188.800781 C 226.96875 190.121094 226.023438 191.398438 225.011719 192.628906 C 224.003906 193.855469 222.9375 195.03125 221.8125 196.15625 C 220.691406 197.28125 219.511719 198.347656 218.285156 199.355469 C 217.054688 200.363281 215.78125 201.3125 214.457031 202.195312 C 213.136719 203.078125 211.773438 203.894531 210.371094 204.644531 C 208.96875 205.394531 207.535156 206.070312 206.066406 206.679688 C 204.597656 207.289062 203.101562 207.824219 201.582031 208.285156 C 200.058594 208.746094 198.519531 209.132812 196.960938 209.441406 C 195.398438 209.753906 193.828125 209.984375 192.246094 210.140625 C 190.664062 210.296875 189.078125 210.375 187.488281 210.375 C 185.898438 210.375 184.3125 210.296875 182.730469 210.140625 C 181.148438 209.984375 179.578125 209.753906 178.019531 209.441406 C 176.460938 209.132812 174.917969 208.746094 173.398438 208.285156 C 171.875 207.824219 170.382812 207.289062 168.914062 206.679688 C 167.445312 206.070312 166.007812 205.394531 164.605469 204.644531 C 163.203125 203.894531 161.84375 203.078125 160.519531 202.195312 C 159.199219 201.3125 157.921875 200.363281 156.695312 199.355469 C 155.464844 198.347656 154.289062 197.28125 153.164062 196.15625 C 152.039062 195.03125 150.972656 193.855469 149.964844 192.628906 C 148.957031 191.398438 148.011719 190.121094 147.128906 188.800781 C 146.242188 187.480469 145.425781 186.117188 144.679688 184.714844 C 143.929688 183.3125 143.25 181.878906 142.640625 180.410156 C 142.03125 178.941406 141.496094 177.445312 141.035156 175.921875 C 140.574219 174.402344 140.1875 172.863281 139.878906 171.300781 C 139.570312 169.742188 139.335938 168.171875 139.179688 166.589844 C 139.023438 165.007812 138.945312 163.421875 138.945312 161.832031 C 138.945312 160.242188 139.023438 158.65625 139.179688 157.074219 C 139.335938 155.492188 139.570312 153.921875 139.878906 152.363281 C 140.1875 150.800781 140.574219 149.261719 141.035156 147.742188 C 141.496094 146.21875 142.03125 144.722656 142.640625 143.253906 C 143.25 141.785156 143.929688 140.351562 144.679688 138.949219 C 145.425781 137.546875 146.242188 136.183594 147.128906 134.863281 C 148.011719 133.542969 148.957031 132.265625 149.964844 131.035156 C 150.972656 129.808594 152.039062 128.632812 153.164062 127.507812 C 154.289062 126.382812 155.464844 125.316406 156.695312 124.308594 C 157.921875 123.300781 159.199219 122.355469 160.519531 121.46875 C 161.84375 120.585938 163.203125 119.769531 164.605469 119.019531 C 166.007812 118.273438 167.445312 117.59375 168.914062 116.984375 C 170.382812 116.375 171.875 115.839844 173.398438 115.378906 C 174.917969 114.917969 176.460938 114.53125 178.019531 114.222656 C 179.578125 113.910156 181.148438 113.679688 182.730469 113.523438 C 184.3125 113.367188 185.898438 113.289062 187.488281 113.289062 C 189.078125 113.289062 190.664062 113.367188 192.246094 113.523438 C 193.828125 113.679688 195.398438 113.910156 196.960938 114.222656 C 198.519531 114.53125 200.058594 114.917969 201.582031 115.378906 C 203.101562 115.839844 204.597656 116.375 206.066406 116.984375 C 207.535156 117.59375 208.96875 118.273438 210.371094 119.019531 C 211.773438 119.769531 213.136719 120.585938 214.457031 121.46875 C 215.78125 122.355469 217.054688 123.300781 218.285156 124.308594 C 219.511719 125.316406 220.691406 126.382812 221.8125 127.507812 C 222.9375 128.632812 224.003906 129.808594 225.011719 131.035156 C 226.023438 132.265625 226.96875 133.542969 227.851562 134.863281 C 228.734375 136.183594 229.550781 137.546875 230.300781 138.949219 C 231.050781 140.351562 231.726562 141.785156 232.335938 143.253906 C 232.945312 144.722656 233.480469 146.21875 233.941406 147.742188 C 234.402344 149.261719 234.789062 150.800781 235.097656 152.363281 C 235.410156 153.921875 235.640625 155.492188 235.796875 157.074219 C 235.953125 158.65625 236.03125 160.242188 236.03125 161.832031 Z M 236.03125 161.832031 " fill-opacity="1" fill-rule="nonzero"/><path fill="#5ebb46" d="M 220.871094 146.269531 C 221.699219 145.710938 222.738281 145.5625 223.6875 145.859375 C 224.640625 146.160156 225.402344 146.878906 225.757812 147.8125 C 227.34375 152.191406 228.21875 156.910156 228.21875 161.832031 C 228.21875 184.3125 209.96875 202.558594 187.488281 202.558594 C 177.011719 202.558594 167.449219 198.589844 160.230469 192.082031 C 159.515625 191.410156 159.144531 190.445312 159.222656 189.464844 C 159.300781 188.484375 159.820312 187.59375 160.632812 187.042969 C 161.183594 186.632812 161.761719 186.242188 162.289062 185.886719 C 163.53125 185.042969 165.191406 185.160156 166.304688 186.167969 C 171.964844 191.128906 179.378906 194.121094 187.488281 194.121094 C 205.3125 194.121094 219.78125 179.65625 219.78125 161.832031 C 219.78125 158.109375 219.152344 154.53125 217.988281 151.203125 C 217.480469 149.800781 217.992188 148.238281 219.226562 147.402344 C 219.742188 147.035156 220.3125 146.652344 220.871094 146.269531 Z M 154.1875 177.550781 C 153.359375 178.109375 152.320312 178.261719 151.363281 177.964844 C 150.410156 177.664062 149.644531 176.945312 149.28125 176.011719 C 147.660156 171.589844 146.765625 166.816406 146.765625 161.832031 C 146.765625 139.355469 165.011719 121.105469 187.488281 121.105469 C 198.039062 121.105469 207.652344 125.125 214.890625 131.714844 C 215.605469 132.386719 215.972656 133.351562 215.890625 134.328125 C 215.808594 135.304688 215.292969 136.191406 214.476562 136.742188 C 213.929688 137.152344 213.355469 137.542969 212.828125 137.898438 C 211.578125 138.742188 209.914062 138.621094 208.796875 137.605469 C 203.121094 132.582031 195.65625 129.542969 187.488281 129.542969 C 169.667969 129.542969 155.199219 144.011719 155.199219 161.832031 C 155.199219 165.613281 155.851562 169.242188 157.046875 172.613281 C 157.5625 174.019531 157.054688 175.59375 155.8125 176.433594 C 155.304688 176.792969 154.742188 177.175781 154.1875 177.550781 Z M 154.1875 177.550781 " fill-opacity="1" fill-rule="evenodd"/><path fill="#003174" d="M 206.097656 149.171875 L 207.402344 149.464844 C 207.503906 149.4375 207.636719 149.40625 207.785156 149.371094 C 208.082031 149.304688 208.433594 149.226562 208.773438 149.1875 C 209.398438 149.117188 209.925781 149.132812 209.925781 149.132812 C 210.242188 149.039062 210.59375 149.226562 210.703125 149.558594 C 210.820312 149.886719 210.652344 150.234375 210.328125 150.332031 C 210.328125 150.332031 209.921875 150.632812 209.367188 150.921875 C 209.066406 151.078125 208.730469 151.210938 208.453125 151.316406 C 208.089844 151.457031 207.820312 151.535156 207.820312 151.535156 C 207.65625 151.585938 207.476562 151.589844 207.308594 151.550781 L 205.15625 151.046875 C 205.023438 151.019531 204.910156 150.960938 204.800781 150.890625 C 204.707031 151.121094 204.625 151.402344 204.5625 151.75 C 204.433594 152.53125 204.890625 155.660156 204.136719 157.695312 C 203.539062 159.300781 202.449219 160.460938 201.726562 161.101562 L 206.789062 163.648438 C 207.332031 163.484375 208.375 163.175781 209.4375 162.90625 C 210.980469 162.519531 212.539062 162.226562 212.539062 162.226562 C 212.859375 162.121094 213.207031 162.308594 213.324219 162.636719 C 213.441406 162.964844 213.28125 163.3125 212.964844 163.414062 C 212.964844 163.414062 211.542969 164.085938 210.0625 164.671875 C 208.601562 165.253906 207.09375 165.75 207.09375 165.75 C 206.851562 165.824219 206.578125 165.804688 206.332031 165.683594 L 200.769531 162.871094 C 200.410156 164.46875 199.671875 167.367188 198.542969 169.824219 C 198.582031 169.851562 198.621094 169.878906 198.652344 169.914062 C 198.652344 169.914062 200.644531 171.652344 202.347656 173.183594 C 203.648438 174.355469 204.777344 175.40625 204.777344 175.40625 C 204.960938 175.574219 205.082031 175.800781 205.121094 176.042969 C 205.121094 176.042969 205.234375 176.929688 205.3125 177.941406 C 205.410156 179.277344 205.449219 180.804688 205.449219 180.804688 C 205.5 181.148438 205.273438 181.449219 204.941406 181.480469 C 204.605469 181.515625 204.292969 181.265625 204.246094 180.921875 C 204.246094 180.921875 203.847656 179.429688 203.5625 178.113281 C 203.433594 177.53125 203.328125 176.992188 203.269531 176.636719 C 202.847656 176.273438 201.984375 175.539062 201.050781 174.722656 C 199.664062 173.507812 198.128906 172.121094 197.582031 171.625 C 197.050781 172.460938 196.464844 173.152344 195.816406 173.601562 C 195.4375 173.867188 195.03125 174.140625 194.589844 174.429688 C 194.730469 174.613281 194.816406 174.84375 194.808594 175.09375 L 194.699219 182.453125 C 194.695312 182.785156 194.535156 183.085938 194.265625 183.265625 C 194.265625 183.265625 193.492188 183.78125 192.414062 184.464844 C 191.574219 184.996094 190.5625 185.632812 189.59375 186.199219 C 187.894531 187.195312 186.363281 187.996094 186.363281 187.996094 C 186.089844 188.175781 185.714844 188.085938 185.519531 187.796875 C 185.324219 187.503906 185.386719 187.121094 185.664062 186.941406 C 185.664062 186.941406 186.992188 185.84375 188.574219 184.664062 C 189.46875 183.996094 190.449219 183.3125 191.265625 182.746094 C 191.851562 182.339844 192.34375 182.003906 192.675781 181.785156 L 192.773438 175.566406 C 188.726562 177.976562 183.15625 180.546875 178.1875 180.5 C 172.550781 180.457031 168.65625 174.605469 168.65625 174.605469 C 168.65625 174.605469 164.484375 168.953125 166.359375 163.636719 C 168.011719 158.949219 172.324219 154.589844 175.972656 151.609375 L 170.089844 149.582031 C 169.769531 149.816406 169.289062 150.167969 168.707031 150.578125 C 167.898438 151.152344 166.921875 151.839844 165.984375 152.457031 C 164.339844 153.539062 162.855469 154.417969 162.855469 154.417969 C 162.589844 154.613281 162.207031 154.542969 162 154.261719 C 161.792969 153.980469 161.835938 153.59375 162.101562 153.398438 C 162.101562 153.398438 163.375 152.230469 164.890625 150.972656 C 165.75 150.253906 166.695312 149.519531 167.480469 148.910156 C 168.492188 148.128906 169.242188 147.582031 169.242188 147.582031 C 169.5 147.390625 169.835938 147.339844 170.152344 147.445312 L 177.109375 149.855469 C 177.34375 149.933594 177.53125 150.089844 177.660156 150.285156 C 178.078125 149.96875 178.476562 149.679688 178.851562 149.414062 C 179.5 148.957031 180.347656 148.644531 181.3125 148.429688 C 181.035156 147.746094 180.253906 145.824219 179.582031 144.109375 C 179.136719 142.953125 178.734375 141.894531 178.542969 141.371094 C 178.226562 141.195312 177.753906 140.914062 177.253906 140.59375 C 176.109375 139.878906 174.84375 138.996094 174.84375 138.996094 C 174.539062 138.832031 174.40625 138.457031 174.554688 138.148438 C 174.695312 137.847656 175.058594 137.738281 175.363281 137.902344 C 175.363281 137.902344 176.789062 138.460938 178.011719 139.007812 C 178.933594 139.425781 179.726562 139.835938 179.726562 139.835938 C 179.945312 139.953125 180.117188 140.144531 180.210938 140.375 C 180.210938 140.375 180.816406 141.796875 181.472656 143.414062 C 182.332031 145.539062 183.289062 148.003906 183.289062 148.003906 C 183.308594 148.046875 183.320312 148.09375 183.332031 148.136719 C 186.03125 147.914062 189.007812 148.207031 190.632812 148.414062 L 189.882812 142.222656 C 189.851562 141.953125 189.925781 141.6875 190.078125 141.484375 C 190.078125 141.484375 191.058594 140.238281 192.101562 139.0625 C 193.160156 137.871094 194.273438 136.761719 194.273438 136.761719 C 194.480469 136.5 194.859375 136.46875 195.128906 136.691406 C 195.398438 136.910156 195.453125 137.304688 195.246094 137.566406 C 195.246094 137.566406 194.4375 138.933594 193.550781 140.253906 C 192.933594 141.160156 192.289062 142.035156 191.949219 142.488281 L 192.621094 148.117188 C 193.46875 147.652344 194.929688 147.027344 196.644531 147.007812 C 198.8125 146.996094 201.601562 148.492188 202.378906 148.632812 C 202.726562 148.695312 203.015625 148.714844 203.265625 148.703125 C 203.238281 148.578125 203.222656 148.449219 203.242188 148.316406 L 203.5 146.125 C 203.519531 145.949219 203.585938 145.785156 203.691406 145.644531 C 203.691406 145.644531 203.855469 145.417969 204.109375 145.125 C 204.304688 144.902344 204.542969 144.628906 204.792969 144.398438 C 205.253906 143.976562 205.675781 143.695312 205.675781 143.695312 C 205.878906 143.429688 206.261719 143.390625 206.53125 143.609375 C 206.804688 143.824219 206.863281 144.21875 206.664062 144.484375 C 206.664062 144.484375 206.503906 144.984375 206.222656 145.550781 C 206.070312 145.855469 205.875 146.160156 205.710938 146.417969 C 205.628906 146.546875 205.554688 146.65625 205.492188 146.746094 L 205.324219 148.070312 C 205.507812 148.113281 205.722656 148.214844 205.996094 148.417969 L 206 148.421875 C 206.066406 148.664062 206.125 148.914062 206.097656 149.160156 Z M 206.097656 149.171875 " fill-opacity="1" fill-rule="evenodd"/><path stroke-linecap="butt" transform="matrix(0.75, 0, 0, 0.75, 77.953183, 172.397684)" fill="none" stroke-linejoin="miter" d="M -0.0000767748 1.001005 L 86.406179 1.001005 " stroke="#ffffff" stroke-width="2" stroke-opacity="1" stroke-miterlimit="4"/><path stroke-linecap="butt" transform="matrix(0.75, 0, 0, 0.75, 77.953183, 149.831474)" fill="none" stroke-linejoin="miter" d="M -0.0000767748 1.000743 L 86.406179 1.000743 " stroke="#ffffff" stroke-width="2" stroke-opacity="1" stroke-miterlimit="4"/><path stroke-linecap="butt" transform="matrix(0.75, 0, 0, 0.75, 233.276516, 172.397684)" fill="none" stroke-linejoin="miter" d="M 0.00110316 1.001005 L 86.407359 1.001005 " stroke="#ffffff" stroke-width="2" stroke-opacity="1" stroke-miterlimit="4"/><path stroke-linecap="butt" transform="matrix(0.75, 0, 0, 0.75, 233.276516, 149.831474)" fill="none" stroke-linejoin="miter" d="M 0.00110316 1.000743 L 86.407359 1.000743 " stroke="#ffffff" stroke-width="2" stroke-opacity="1" stroke-miterlimit="4"/><g fill="#ffffff" fill-opacity="1"><g transform="translate(94.24806, 165.239639)"><g><path d="M 0.59375 -9.109375 L 7.046875 -9.109375 L 7.046875 -7.171875 L 2.890625 -7.171875 L 2.890625 -5.453125 L 5.921875 -5.453125 L 5.921875 -3.65625 L 2.890625 -3.65625 L 2.890625 -1.9375 L 7.046875 -1.9375 L 7.046875 0 L 0.59375 0 Z M 0.59375 -9.109375 "/></g></g></g><g fill="#ffffff" fill-opacity="1"><g transform="translate(102.888392, 165.239639)"><g><path d="M 3.421875 0.203125 C 2.847656 0.203125 2.28125 0.144531 1.71875 0.03125 C 1.15625 -0.0703125 0.691406 -0.222656 0.328125 -0.421875 L 0.328125 -2.484375 C 0.796875 -2.242188 1.28125 -2.0625 1.78125 -1.9375 C 2.289062 -1.820312 2.78125 -1.765625 3.25 -1.765625 C 3.675781 -1.765625 3.992188 -1.828125 4.203125 -1.953125 C 4.421875 -2.085938 4.53125 -2.273438 4.53125 -2.515625 C 4.53125 -2.691406 4.472656 -2.847656 4.359375 -2.984375 C 4.242188 -3.117188 4.070312 -3.242188 3.84375 -3.359375 C 3.613281 -3.472656 3.257812 -3.628906 2.78125 -3.828125 C 1.945312 -4.179688 1.335938 -4.578125 0.953125 -5.015625 C 0.566406 -5.453125 0.375 -5.988281 0.375 -6.625 C 0.375 -7.144531 0.519531 -7.609375 0.8125 -8.015625 C 1.101562 -8.421875 1.507812 -8.734375 2.03125 -8.953125 C 2.550781 -9.179688 3.148438 -9.296875 3.828125 -9.296875 C 4.390625 -9.296875 4.882812 -9.253906 5.3125 -9.171875 C 5.75 -9.085938 6.164062 -8.945312 6.5625 -8.75 L 6.5625 -6.734375 C 5.800781 -7.140625 5.035156 -7.34375 4.265625 -7.34375 C 3.847656 -7.34375 3.515625 -7.273438 3.265625 -7.140625 C 3.015625 -7.003906 2.890625 -6.8125 2.890625 -6.5625 C 2.890625 -6.300781 3.015625 -6.09375 3.265625 -5.9375 C 3.523438 -5.78125 3.992188 -5.566406 4.671875 -5.296875 C 5.285156 -5.046875 5.765625 -4.800781 6.109375 -4.5625 C 6.453125 -4.320312 6.703125 -4.039062 6.859375 -3.71875 C 7.015625 -3.394531 7.09375 -2.984375 7.09375 -2.484375 C 7.09375 -1.640625 6.785156 -0.976562 6.171875 -0.5 C 5.554688 -0.03125 4.640625 0.203125 3.421875 0.203125 Z M 3.421875 0.203125 "/></g></g></g><g fill="#ffffff" fill-opacity="1"><g transform="translate(111.567817, 165.239639)"><g><path d="M 2.703125 -7.171875 L 0.125 -7.171875 L 0.125 -9.109375 L 7.578125 -9.109375 L 7.578125 -7.171875 L 5 -7.171875 L 5 0 L 2.703125 0 Z M 2.703125 -7.171875 "/></g></g></g><g fill="#ffffff" fill-opacity="1"><g transform="translate(252.412752, 165.239639)"><g><path d="M 0.328125 -1.3125 L 1.765625 -2.625 L 2.390625 -3.1875 C 2.910156 -3.644531 3.304688 -4.003906 3.578125 -4.265625 C 3.847656 -4.535156 4.070312 -4.8125 4.25 -5.09375 C 4.425781 -5.375 4.515625 -5.648438 4.515625 -5.921875 C 4.515625 -6.722656 4.0625 -7.125 3.15625 -7.125 C 2.707031 -7.125 2.269531 -7.046875 1.84375 -6.890625 C 1.414062 -6.734375 1.019531 -6.515625 0.65625 -6.234375 L 0.65625 -8.4375 C 1.039062 -8.707031 1.492188 -8.914062 2.015625 -9.0625 C 2.535156 -9.21875 3.09375 -9.296875 3.6875 -9.296875 C 4.363281 -9.296875 4.945312 -9.171875 5.4375 -8.921875 C 5.9375 -8.671875 6.316406 -8.320312 6.578125 -7.875 C 6.835938 -7.4375 6.96875 -6.941406 6.96875 -6.390625 C 6.96875 -5.710938 6.8125 -5.125 6.5 -4.625 C 6.195312 -4.132812 5.703125 -3.570312 5.015625 -2.9375 L 3.859375 -1.890625 L 7.265625 -1.890625 L 7.265625 0 L 0.328125 0 Z M 0.328125 -1.3125 "/></g></g></g><g fill="#ffffff" fill-opacity="1"><g transform="translate(261.261583, 165.239639)"><g><path d="M 4.515625 0.203125 C 3.671875 0.203125 2.929688 0.015625 2.296875 -0.359375 C 1.671875 -0.742188 1.1875 -1.289062 0.84375 -2 C 0.5 -2.71875 0.328125 -3.566406 0.328125 -4.546875 C 0.328125 -5.523438 0.492188 -6.367188 0.828125 -7.078125 C 1.171875 -7.796875 1.65625 -8.34375 2.28125 -8.71875 C 2.914062 -9.101562 3.660156 -9.296875 4.515625 -9.296875 C 5.378906 -9.296875 6.125 -9.101562 6.75 -8.71875 C 7.382812 -8.34375 7.867188 -7.796875 8.203125 -7.078125 C 8.546875 -6.367188 8.71875 -5.523438 8.71875 -4.546875 C 8.71875 -3.566406 8.546875 -2.71875 8.203125 -2 C 7.859375 -1.289062 7.367188 -0.742188 6.734375 -0.359375 C 6.097656 0.015625 5.359375 0.203125 4.515625 0.203125 Z M 4.515625 -1.96875 C 5.097656 -1.96875 5.550781 -2.191406 5.875 -2.640625 C 6.195312 -3.097656 6.359375 -3.722656 6.359375 -4.515625 C 6.359375 -5.328125 6.195312 -5.960938 5.875 -6.421875 C 5.5625 -6.890625 5.109375 -7.125 4.515625 -7.125 C 3.929688 -7.125 3.476562 -6.890625 3.15625 -6.421875 C 2.84375 -5.960938 2.6875 -5.328125 2.6875 -4.515625 C 2.6875 -3.722656 2.847656 -3.097656 3.171875 -2.640625 C 3.492188 -2.191406 3.941406 -1.96875 4.515625 -1.96875 Z M 4.515625 -1.96875 "/></g></g></g><g fill="#ffffff" fill-opacity="1"><g transform="translate(271.569914, 165.239639)"><g><path d="M 0.328125 -1.3125 L 1.765625 -2.625 L 2.390625 -3.1875 C 2.910156 -3.644531 3.304688 -4.003906 3.578125 -4.265625 C 3.847656 -4.535156 4.070312 -4.8125 4.25 -5.09375 C 4.425781 -5.375 4.515625 -5.648438 4.515625 -5.921875 C 4.515625 -6.722656 4.0625 -7.125 3.15625 -7.125 C 2.707031 -7.125 2.269531 -7.046875 1.84375 -6.890625 C 1.414062 -6.734375 1.019531 -6.515625 0.65625 -6.234375 L 0.65625 -8.4375 C 1.039062 -8.707031 1.492188 -8.914062 2.015625 -9.0625 C 2.535156 -9.21875 3.09375 -9.296875 3.6875 -9.296875 C 4.363281 -9.296875 4.945312 -9.171875 5.4375 -8.921875 C 5.9375 -8.671875 6.316406 -8.320312 6.578125 -7.875 C 6.835938 -7.4375 6.96875 -6.941406 6.96875 -6.390625 C 6.96875 -5.710938 6.8125 -5.125 6.5 -4.625 C 6.195312 -4.132812 5.703125 -3.570312 5.015625 -2.9375 L 3.859375 -1.890625 L 7.265625 -1.890625 L 7.265625 0 L 0.328125 0 Z M 0.328125 -1.3125 "/></g></g></g><g fill="#ffffff" fill-opacity="1"><g transform="translate(280.418746, 165.239639)"><g><path d="M 4.25 -1.875 L 0.0625 -1.875 L 0.0625 -3.3125 L 4.375 -9.109375 L 6.65625 -9.109375 L 6.65625 -3.703125 L 7.953125 -3.703125 L 7.953125 -1.875 L 6.65625 -1.875 L 6.65625 0 L 4.25 0 Z M 4.59375 -3.703125 L 4.59375 -6.3125 L 2.6875 -3.703125 Z M 4.59375 -3.703125 "/></g></g></g><g fill="#ffffff" fill-opacity="1"><g transform="translate(126.782004, 248.215517)"><g><path d="M 1.1875 -18.515625 L 10.5625 -18.515625 C 12.351562 -18.515625 13.765625 -18.070312 14.796875 -17.1875 C 15.828125 -16.300781 16.34375 -15.039062 16.34375 -13.40625 C 16.34375 -12.625 16.164062 -11.894531 15.8125 -11.21875 C 15.457031 -10.550781 14.953125 -10.023438 14.296875 -9.640625 C 15.203125 -9.285156 15.863281 -8.773438 16.28125 -8.109375 C 16.707031 -7.453125 16.921875 -6.59375 16.921875 -5.53125 C 16.921875 -4.40625 16.65625 -3.421875 16.125 -2.578125 C 15.59375 -1.742188 14.878906 -1.101562 13.984375 -0.65625 C 13.097656 -0.21875 12.109375 0 11.015625 0 L 1.1875 0 Z M 9.53125 -11.171875 C 10.90625 -11.171875 11.59375 -11.816406 11.59375 -13.109375 C 11.59375 -13.835938 11.414062 -14.335938 11.0625 -14.609375 C 10.71875 -14.878906 10.179688 -15.015625 9.453125 -15.015625 L 5.875 -15.015625 L 5.875 -11.171875 Z M 9.828125 -3.5 C 10.617188 -3.5 11.207031 -3.644531 11.59375 -3.9375 C 11.988281 -4.238281 12.1875 -4.769531 12.1875 -5.53125 C 12.1875 -6.289062 11.984375 -6.84375 11.578125 -7.1875 C 11.171875 -7.53125 10.550781 -7.703125 9.71875 -7.703125 L 5.875 -7.703125 L 5.875 -3.5 Z M 9.828125 -3.5 "/></g></g></g><g fill="#ffffff" fill-opacity="1"><g transform="translate(146.927068, 248.215517)"><g><path d="M 1.1875 -18.515625 L 5.875 -18.515625 L 5.875 0 L 1.1875 0 Z M 1.1875 -18.515625 "/></g></g></g><g fill="#ffffff" fill-opacity="1"><g transform="translate(156.563475, 248.215517)"><g><path d="M 10.625 0.390625 C 8.75 0.390625 7.054688 -0.015625 5.546875 -0.828125 C 4.035156 -1.640625 2.84375 -2.769531 1.96875 -4.21875 C 1.09375 -5.675781 0.65625 -7.351562 0.65625 -9.25 C 0.65625 -11.132812 1.09375 -12.804688 1.96875 -14.265625 C 2.84375 -15.734375 4.035156 -16.875 5.546875 -17.6875 C 7.054688 -18.5 8.75 -18.90625 10.625 -18.90625 C 12.476562 -18.90625 14.160156 -18.5 15.671875 -17.6875 C 17.179688 -16.875 18.367188 -15.734375 19.234375 -14.265625 C 20.097656 -12.804688 20.53125 -11.132812 20.53125 -9.25 C 20.53125 -7.351562 20.097656 -5.675781 19.234375 -4.21875 C 18.367188 -2.769531 17.179688 -1.640625 15.671875 -0.828125 C 14.160156 -0.015625 12.476562 0.390625 10.625 0.390625 Z M 10.625 -4 C 11.5625 -4 12.414062 -4.207031 13.1875 -4.625 C 13.96875 -5.050781 14.585938 -5.660156 15.046875 -6.453125 C 15.503906 -7.253906 15.734375 -8.1875 15.734375 -9.25 C 15.734375 -10.300781 15.503906 -11.21875 15.046875 -12 C 14.597656 -12.789062 13.984375 -13.398438 13.203125 -13.828125 C 12.429688 -14.265625 11.570312 -14.484375 10.625 -14.484375 C 9.644531 -14.484375 8.765625 -14.265625 7.984375 -13.828125 C 7.210938 -13.398438 6.601562 -12.789062 6.15625 -12 C 5.707031 -11.21875 5.484375 -10.300781 5.484375 -9.25 C 5.484375 -8.1875 5.707031 -7.253906 6.15625 -6.453125 C 6.601562 -5.660156 7.21875 -5.050781 8 -4.625 C 8.789062 -4.207031 9.664062 -4 10.625 -4 Z M 10.625 -4 "/></g></g></g><g fill="#5ebb46" fill-opacity="1"><g transform="translate(187.816545, 250.104287)"><g><path d="M 1.1875 -18.515625 L 7.84375 -18.515625 C 9.875 -18.515625 11.644531 -18.140625 13.15625 -17.390625 C 14.675781 -16.648438 15.847656 -15.585938 16.671875 -14.203125 C 17.492188 -12.816406 17.90625 -11.195312 17.90625 -9.34375 C 17.90625 -6.269531 17.003906 -3.941406 15.203125 -2.359375 C 13.398438 -0.785156 10.898438 0 7.703125 0 L 1.1875 0 Z M 8.109375 -3.953125 C 9.710938 -3.953125 10.941406 -4.4375 11.796875 -5.40625 C 12.648438 -6.375 13.078125 -7.6875 13.078125 -9.34375 C 13.078125 -10.863281 12.648438 -12.113281 11.796875 -13.09375 C 10.941406 -14.070312 9.765625 -14.5625 8.265625 -14.5625 L 5.875 -14.5625 L 5.875 -3.953125 Z M 8.109375 -3.953125 "/></g></g></g><g fill="#5ebb46" fill-opacity="1"><g transform="translate(208.945748, 250.104287)"><g><path d="M 1.1875 -18.515625 L 7.84375 -18.515625 C 9.875 -18.515625 11.644531 -18.140625 13.15625 -17.390625 C 14.675781 -16.648438 15.847656 -15.585938 16.671875 -14.203125 C 17.492188 -12.816406 17.90625 -11.195312 17.90625 -9.34375 C 17.90625 -6.269531 17.003906 -3.941406 15.203125 -2.359375 C 13.398438 -0.785156 10.898438 0 7.703125 0 L 1.1875 0 Z M 8.109375 -3.953125 C 9.710938 -3.953125 10.941406 -4.4375 11.796875 -5.40625 C 12.648438 -6.375 13.078125 -7.6875 13.078125 -9.34375 C 13.078125 -10.863281 12.648438 -12.113281 11.796875 -13.09375 C 10.941406 -14.070312 9.765625 -14.5625 8.265625 -14.5625 L 5.875 -14.5625 L 5.875 -3.953125 Z M 8.109375 -3.953125 "/></g></g></g><g fill="#5ebb46" fill-opacity="1"><g transform="translate(230.07495, 250.104287)"><g><path d="M 1.1875 -18.515625 L 7.84375 -18.515625 C 9.875 -18.515625 11.644531 -18.140625 13.15625 -17.390625 C 14.675781 -16.648438 15.847656 -15.585938 16.671875 -14.203125 C 17.492188 -12.816406 17.90625 -11.195312 17.90625 -9.34375 C 17.90625 -6.269531 17.003906 -3.941406 15.203125 -2.359375 C 13.398438 -0.785156 10.898438 0 7.703125 0 L 1.1875 0 Z M 8.109375 -3.953125 C 9.710938 -3.953125 10.941406 -4.4375 11.796875 -5.40625 C 12.648438 -6.375 13.078125 -7.6875 13.078125 -9.34375 C 13.078125 -10.863281 12.648438 -12.113281 11.796875 -13.09375 C 10.941406 -14.070312 9.765625 -14.5625 8.265625 -14.5625 L 5.875 -14.5625 L 5.875 -3.953125 Z M 8.109375 -3.953125 "/></g></g></g></svg>