<svg xmlns="http://www.w3.org/2000/svg" xmlns:xlink="http://www.w3.org/1999/xlink" width="500" zoomAndPan="magnify" viewBox="0 0 375 374.999991" height="500" preserveAspectRatio="xMidYMid meet" version="1.0"><defs><g/><clipPath id="b36150d6b7"><path d="M 182 106.253906 L 193 106.253906 L 193 216.503906 L 182 216.503906 Z M 182 106.253906 " clip-rule="nonzero"/></clipPath><clipPath id="066508f585"><path d="M 132.398438 156 L 242.648438 156 L 242.648438 167 L 132.398438 167 Z M 132.398438 156 " clip-rule="nonzero"/></clipPath></defs><g clip-path="url(#b36150d6b7)"><path fill="#003174" d="M 192.761719 109.382812 C 192.761719 108.546875 192.429688 107.746094 191.839844 107.15625 C 191.246094 106.566406 190.445312 106.230469 189.609375 106.230469 C 188.269531 106.230469 186.707031 106.230469 185.367188 106.230469 C 183.632812 106.230469 182.226562 107.640625 182.226562 109.375 C 182.226562 125.332031 182.226562 197.289062 182.226562 213.28125 C 182.226562 214.109375 182.558594 214.90625 183.148438 215.5 C 183.742188 216.09375 184.542969 216.421875 185.378906 216.421875 C 186.714844 216.421875 188.273438 216.421875 189.609375 216.421875 C 190.445312 216.421875 191.246094 216.09375 191.839844 215.5 C 192.429688 214.90625 192.761719 214.109375 192.761719 213.28125 C 192.761719 197.300781 192.761719 125.363281 192.761719 109.382812 Z M 192.761719 109.382812 " fill-opacity="1" fill-rule="evenodd"/></g><g clip-path="url(#066508f585)"><path fill="#003174" d="M 135.550781 156.058594 C 134.714844 156.058594 133.914062 156.394531 133.320312 156.984375 C 132.730469 157.574219 132.398438 158.375 132.398438 159.210938 C 132.398438 160.550781 132.398438 162.113281 132.398438 163.453125 C 132.398438 165.1875 133.804688 166.59375 135.539062 166.59375 C 151.5 166.59375 223.457031 166.59375 239.449219 166.59375 C 240.277344 166.59375 241.074219 166.261719 241.667969 165.671875 C 242.261719 165.082031 242.589844 164.28125 242.589844 163.445312 C 242.589844 162.105469 242.589844 160.550781 242.589844 159.210938 C 242.589844 158.375 242.261719 157.574219 241.667969 156.984375 C 241.074219 156.394531 240.277344 156.058594 239.449219 156.058594 C 223.46875 156.058594 151.527344 156.058594 135.550781 156.058594 Z M 135.550781 156.058594 " fill-opacity="1" fill-rule="evenodd"/></g><path fill="#003174" d="M 236.03125 161.324219 C 236.03125 162.914062 235.953125 164.5 235.796875 166.082031 C 235.640625 167.664062 235.410156 169.238281 235.097656 170.796875 C 234.789062 172.355469 234.402344 173.894531 233.941406 175.417969 C 233.480469 176.9375 232.945312 178.433594 232.335938 179.902344 C 231.726562 181.371094 231.050781 182.804688 230.300781 184.207031 C 229.550781 185.609375 228.734375 186.972656 227.851562 188.292969 C 226.96875 189.617188 226.023438 190.890625 225.011719 192.121094 C 224.003906 193.351562 222.9375 194.527344 221.8125 195.652344 C 220.691406 196.773438 219.511719 197.839844 218.285156 198.851562 C 217.054688 199.859375 215.78125 200.804688 214.457031 201.6875 C 213.136719 202.570312 211.773438 203.386719 210.371094 204.136719 C 208.96875 204.886719 207.535156 205.566406 206.066406 206.171875 C 204.597656 206.78125 203.101562 207.316406 201.582031 207.777344 C 200.058594 208.238281 198.519531 208.625 196.960938 208.9375 C 195.398438 209.246094 193.828125 209.480469 192.246094 209.636719 C 190.664062 209.789062 189.078125 209.867188 187.488281 209.867188 C 185.898438 209.867188 184.3125 209.789062 182.730469 209.636719 C 181.148438 209.480469 179.578125 209.246094 178.019531 208.9375 C 176.460938 208.625 174.917969 208.238281 173.398438 207.777344 C 171.875 207.316406 170.382812 206.78125 168.914062 206.171875 C 167.445312 205.566406 166.007812 204.886719 164.605469 204.136719 C 163.203125 203.386719 161.84375 202.570312 160.519531 201.6875 C 159.199219 200.804688 157.921875 199.859375 156.695312 198.851562 C 155.464844 197.839844 154.289062 196.773438 153.164062 195.652344 C 152.039062 194.527344 150.972656 193.351562 149.964844 192.121094 C 148.957031 190.890625 148.011719 189.617188 147.128906 188.292969 C 146.242188 186.972656 145.425781 185.609375 144.679688 184.207031 C 143.929688 182.804688 143.25 181.371094 142.640625 179.902344 C 142.03125 178.433594 141.496094 176.9375 141.035156 175.417969 C 140.574219 173.894531 140.1875 172.355469 139.878906 170.796875 C 139.570312 169.238281 139.335938 167.664062 139.179688 166.082031 C 139.023438 164.5 138.945312 162.914062 138.945312 161.324219 C 138.945312 159.734375 139.023438 158.148438 139.179688 156.566406 C 139.335938 154.984375 139.570312 153.414062 139.878906 151.855469 C 140.1875 150.296875 140.574219 148.753906 141.035156 147.234375 C 141.496094 145.714844 142.03125 144.21875 142.640625 142.75 C 143.25 141.28125 143.929688 139.84375 144.679688 138.441406 C 145.425781 137.039062 146.242188 135.679688 147.128906 134.355469 C 148.011719 133.035156 148.957031 131.757812 149.964844 130.53125 C 150.972656 129.300781 152.039062 128.125 153.164062 127 C 154.289062 125.875 155.464844 124.808594 156.695312 123.800781 C 157.921875 122.792969 159.199219 121.847656 160.519531 120.964844 C 161.84375 120.082031 163.203125 119.265625 164.605469 118.515625 C 166.007812 117.765625 167.445312 117.085938 168.914062 116.476562 C 170.382812 115.871094 171.875 115.335938 173.398438 114.875 C 174.917969 114.410156 176.460938 114.027344 178.019531 113.714844 C 179.578125 113.40625 181.148438 113.171875 182.730469 113.015625 C 184.3125 112.859375 185.898438 112.78125 187.488281 112.78125 C 189.078125 112.78125 190.664062 112.859375 192.246094 113.015625 C 193.828125 113.171875 195.398438 113.40625 196.960938 113.714844 C 198.519531 114.027344 200.058594 114.410156 201.582031 114.875 C 203.101562 115.335938 204.597656 115.871094 206.066406 116.476562 C 207.535156 117.085938 208.96875 117.765625 210.371094 118.515625 C 211.773438 119.265625 213.136719 120.082031 214.457031 120.964844 C 215.78125 121.847656 217.054688 122.792969 218.285156 123.800781 C 219.511719 124.808594 220.691406 125.875 221.8125 127 C 222.9375 128.125 224.003906 129.300781 225.011719 130.53125 C 226.023438 131.757812 226.96875 133.035156 227.851562 134.355469 C 228.734375 135.679688 229.550781 137.039062 230.300781 138.441406 C 231.050781 139.84375 231.726562 141.28125 232.335938 142.75 C 232.945312 144.21875 233.480469 145.714844 233.941406 147.234375 C 234.402344 148.753906 234.789062 150.296875 235.097656 151.855469 C 235.410156 153.414062 235.640625 154.984375 235.796875 156.566406 C 235.953125 158.148438 236.03125 159.734375 236.03125 161.324219 Z M 236.03125 161.324219 " fill-opacity="1" fill-rule="nonzero"/><path fill="#5ebb46" d="M 220.871094 145.765625 C 221.699219 145.203125 222.738281 145.054688 223.6875 145.355469 C 224.640625 145.65625 225.402344 146.375 225.757812 147.304688 C 227.34375 151.683594 228.21875 156.402344 228.21875 161.324219 C 228.21875 183.804688 209.96875 202.050781 187.488281 202.050781 C 177.011719 202.050781 167.449219 198.082031 160.230469 191.574219 C 159.515625 190.902344 159.144531 189.941406 159.222656 188.960938 C 159.300781 187.980469 159.820312 187.085938 160.632812 186.535156 C 161.183594 186.125 161.761719 185.734375 162.289062 185.378906 C 163.53125 184.539062 165.191406 184.652344 166.304688 185.660156 C 171.964844 190.621094 179.378906 193.613281 187.488281 193.613281 C 205.3125 193.613281 219.78125 179.148438 219.78125 161.324219 C 219.78125 157.601562 219.152344 154.027344 217.988281 150.695312 C 217.480469 149.296875 217.992188 147.730469 219.226562 146.894531 C 219.742188 146.527344 220.3125 146.144531 220.871094 145.765625 Z M 154.1875 177.042969 C 153.359375 177.605469 152.320312 177.753906 151.363281 177.457031 C 150.410156 177.15625 149.644531 176.4375 149.28125 175.503906 C 147.660156 171.082031 146.765625 166.308594 146.765625 161.324219 C 146.765625 138.847656 165.011719 120.601562 187.488281 120.601562 C 198.039062 120.601562 207.652344 124.617188 214.890625 131.207031 C 215.605469 131.882812 215.972656 132.84375 215.890625 133.820312 C 215.808594 134.796875 215.292969 135.6875 214.476562 136.234375 C 213.929688 136.644531 213.355469 137.035156 212.828125 137.390625 C 211.578125 138.234375 209.914062 138.117188 208.796875 137.097656 C 203.121094 132.074219 195.65625 129.035156 187.488281 129.035156 C 169.667969 129.035156 155.199219 143.503906 155.199219 161.324219 C 155.199219 165.105469 155.851562 168.738281 157.046875 172.109375 C 157.5625 173.511719 157.054688 175.085938 155.8125 175.925781 C 155.304688 176.289062 154.742188 176.667969 154.1875 177.042969 Z M 154.1875 177.042969 " fill-opacity="1" fill-rule="evenodd"/><path fill="#ffffff" d="M 206.097656 148.664062 L 207.402344 148.960938 C 207.503906 148.929688 207.636719 148.898438 207.785156 148.867188 C 208.082031 148.796875 208.433594 148.71875 208.773438 148.683594 C 209.398438 148.609375 209.925781 148.628906 209.925781 148.628906 C 210.242188 148.53125 210.59375 148.71875 210.703125 149.054688 C 210.820312 149.378906 210.652344 149.726562 210.328125 149.824219 C 210.328125 149.824219 209.921875 150.128906 209.367188 150.414062 C 209.066406 150.570312 208.730469 150.703125 208.453125 150.8125 C 208.089844 150.953125 207.820312 151.027344 207.820312 151.027344 C 207.65625 151.078125 207.476562 151.085938 207.308594 151.042969 L 205.15625 150.539062 C 205.023438 150.511719 204.910156 150.457031 204.800781 150.386719 C 204.707031 150.617188 204.625 150.894531 204.5625 151.246094 C 204.433594 152.023438 204.890625 155.15625 204.136719 157.1875 C 203.539062 158.796875 202.449219 159.953125 201.726562 160.59375 L 206.789062 163.144531 C 207.332031 162.976562 208.375 162.667969 209.4375 162.398438 C 210.980469 162.011719 212.539062 161.71875 212.539062 161.71875 C 212.859375 161.617188 213.207031 161.800781 213.324219 162.128906 C 213.441406 162.457031 213.28125 162.804688 212.964844 162.910156 C 212.964844 162.910156 211.542969 163.578125 210.0625 164.167969 C 208.601562 164.746094 207.09375 165.242188 207.09375 165.242188 C 206.851562 165.320312 206.578125 165.296875 206.332031 165.175781 L 200.769531 162.363281 C 200.410156 163.960938 199.671875 166.859375 198.542969 169.320312 C 198.582031 169.34375 198.621094 169.371094 198.652344 169.40625 C 198.652344 169.40625 200.644531 171.144531 202.347656 172.675781 C 203.648438 173.847656 204.777344 174.898438 204.777344 174.898438 C 204.960938 175.066406 205.082031 175.296875 205.121094 175.539062 C 205.121094 175.539062 205.234375 176.425781 205.3125 177.433594 C 205.410156 178.769531 205.449219 180.300781 205.449219 180.300781 C 205.5 180.640625 205.273438 180.945312 204.941406 180.976562 C 204.605469 181.011719 204.292969 180.757812 204.246094 180.417969 C 204.246094 180.417969 203.847656 178.921875 203.5625 177.605469 C 203.433594 177.027344 203.328125 176.484375 203.269531 176.128906 C 202.847656 175.769531 201.984375 175.03125 201.050781 174.214844 C 199.664062 173.003906 198.128906 171.613281 197.582031 171.117188 C 197.050781 171.953125 196.464844 172.644531 195.816406 173.097656 C 195.4375 173.359375 195.03125 173.636719 194.589844 173.921875 C 194.730469 174.109375 194.816406 174.335938 194.808594 174.585938 L 194.699219 181.949219 C 194.695312 182.28125 194.535156 182.582031 194.265625 182.757812 C 194.265625 182.757812 193.492188 183.277344 192.414062 183.957031 C 191.574219 184.488281 190.5625 185.128906 189.59375 185.695312 C 187.894531 186.6875 186.363281 187.488281 186.363281 187.488281 C 186.089844 187.671875 185.714844 187.582031 185.519531 187.289062 C 185.324219 187 185.386719 186.613281 185.664062 186.433594 C 185.664062 186.433594 186.992188 185.335938 188.574219 184.15625 C 189.46875 183.488281 190.449219 182.804688 191.265625 182.238281 C 191.851562 181.832031 192.34375 181.5 192.675781 181.277344 L 192.773438 175.058594 C 188.726562 177.46875 183.15625 180.042969 178.1875 179.996094 C 172.550781 179.949219 168.65625 174.097656 168.65625 174.097656 C 168.65625 174.097656 164.484375 168.449219 166.359375 163.132812 C 168.011719 158.445312 172.324219 154.085938 175.972656 151.101562 L 170.089844 149.074219 C 169.769531 149.3125 169.289062 149.660156 168.707031 150.070312 C 167.898438 150.644531 166.921875 151.332031 165.984375 151.949219 C 164.339844 153.03125 162.855469 153.910156 162.855469 153.910156 C 162.589844 154.105469 162.207031 154.035156 162 153.753906 C 161.792969 153.472656 161.835938 153.085938 162.101562 152.890625 C 162.101562 152.890625 163.375 151.726562 164.890625 150.464844 C 165.75 149.75 166.695312 149.015625 167.480469 148.40625 C 168.492188 147.621094 169.242188 147.074219 169.242188 147.074219 C 169.5 146.882812 169.835938 146.832031 170.152344 146.941406 L 177.109375 149.347656 C 177.34375 149.425781 177.53125 149.582031 177.660156 149.777344 C 178.078125 149.460938 178.476562 149.171875 178.851562 148.90625 C 179.5 148.453125 180.347656 148.136719 181.3125 147.921875 C 181.035156 147.238281 180.253906 145.320312 179.582031 143.601562 C 179.136719 142.449219 178.734375 141.386719 178.542969 140.867188 C 178.226562 140.6875 177.753906 140.40625 177.253906 140.089844 C 176.109375 139.371094 174.84375 138.492188 174.84375 138.492188 C 174.539062 138.328125 174.40625 137.949219 174.554688 137.644531 C 174.695312 137.34375 175.058594 137.230469 175.363281 137.394531 C 175.363281 137.394531 176.789062 137.953125 178.011719 138.5 C 178.933594 138.917969 179.726562 139.328125 179.726562 139.328125 C 179.945312 139.445312 180.117188 139.640625 180.210938 139.867188 C 180.210938 139.867188 180.816406 141.289062 181.472656 142.910156 C 182.332031 145.03125 183.289062 147.5 183.289062 147.5 C 183.308594 147.539062 183.320312 147.585938 183.332031 147.628906 C 186.03125 147.40625 189.007812 147.699219 190.632812 147.90625 L 189.882812 141.71875 C 189.851562 141.445312 189.925781 141.179688 190.078125 140.980469 C 190.078125 140.980469 191.058594 139.730469 192.101562 138.554688 C 193.160156 137.363281 194.273438 136.257812 194.273438 136.257812 C 194.480469 135.992188 194.859375 135.960938 195.128906 136.183594 C 195.398438 136.40625 195.453125 136.796875 195.246094 137.058594 C 195.246094 137.058594 194.4375 138.425781 193.550781 139.746094 C 192.933594 140.652344 192.289062 141.527344 191.949219 141.984375 L 192.621094 147.609375 C 193.46875 147.148438 194.929688 146.519531 196.644531 146.503906 C 198.8125 146.488281 201.601562 147.988281 202.378906 148.128906 C 202.726562 148.191406 203.015625 148.207031 203.265625 148.195312 C 203.238281 148.070312 203.222656 147.945312 203.242188 147.808594 L 203.5 145.617188 C 203.519531 145.441406 203.585938 145.277344 203.691406 145.140625 C 203.691406 145.140625 203.855469 144.910156 204.109375 144.621094 C 204.304688 144.394531 204.542969 144.125 204.792969 143.894531 C 205.253906 143.472656 205.675781 143.191406 205.675781 143.191406 C 205.878906 142.921875 206.261719 142.882812 206.53125 143.101562 C 206.804688 143.316406 206.863281 143.710938 206.664062 143.976562 C 206.664062 143.976562 206.503906 144.480469 206.222656 145.042969 C 206.070312 145.347656 205.875 145.65625 205.710938 145.910156 C 205.628906 146.039062 205.554688 146.148438 205.492188 146.238281 L 205.324219 147.566406 C 205.507812 147.605469 205.722656 147.710938 205.996094 147.910156 L 206 147.914062 C 206.066406 148.15625 206.125 148.40625 206.097656 148.652344 Z M 206.097656 148.664062 " fill-opacity="1" fill-rule="evenodd"/><path stroke-linecap="butt" transform="matrix(0.75, 0, 0, 0.75, 77.953183, 172.397741)" fill="none" stroke-linejoin="miter" d="M -0.0000767748 1.000928 L 86.406179 1.000928 " stroke="#003174" stroke-width="2" stroke-opacity="1" stroke-miterlimit="4"/><path stroke-linecap="butt" transform="matrix(0.75, 0, 0, 0.75, 77.953183, 149.831534)" fill="none" stroke-linejoin="miter" d="M -0.0000767748 1.000663 L 86.406179 1.000663 " stroke="#003174" stroke-width="2" stroke-opacity="1" stroke-miterlimit="4"/><path stroke-linecap="butt" transform="matrix(0.75, 0, 0, 0.75, 233.276516, 172.397741)" fill="none" stroke-linejoin="miter" d="M 0.00110316 1.000928 L 86.407359 1.000928 " stroke="#003174" stroke-width="2" stroke-opacity="1" stroke-miterlimit="4"/><path stroke-linecap="butt" transform="matrix(0.75, 0, 0, 0.75, 233.276516, 149.831534)" fill="none" stroke-linejoin="miter" d="M 0.00110316 1.000663 L 86.407359 1.000663 " stroke="#003174" stroke-width="2" stroke-opacity="1" stroke-miterlimit="4"/><g fill="#003174" fill-opacity="1"><g transform="translate(94.24806, 165.239696)"><g><path d="M 0.59375 -9.109375 L 7.046875 -9.109375 L 7.046875 -7.171875 L 2.890625 -7.171875 L 2.890625 -5.453125 L 5.921875 -5.453125 L 5.921875 -3.65625 L 2.890625 -3.65625 L 2.890625 -1.9375 L 7.046875 -1.9375 L 7.046875 0 L 0.59375 0 Z M 0.59375 -9.109375 "/></g></g></g><g fill="#003174" fill-opacity="1"><g transform="translate(102.888392, 165.239696)"><g><path d="M 3.421875 0.203125 C 2.847656 0.203125 2.28125 0.144531 1.71875 0.03125 C 1.15625 -0.0703125 0.691406 -0.222656 0.328125 -0.421875 L 0.328125 -2.484375 C 0.796875 -2.242188 1.28125 -2.0625 1.78125 -1.9375 C 2.289062 -1.820312 2.78125 -1.765625 3.25 -1.765625 C 3.675781 -1.765625 3.992188 -1.828125 4.203125 -1.953125 C 4.421875 -2.085938 4.53125 -2.273438 4.53125 -2.515625 C 4.53125 -2.691406 4.472656 -2.847656 4.359375 -2.984375 C 4.242188 -3.117188 4.070312 -3.242188 3.84375 -3.359375 C 3.613281 -3.472656 3.257812 -3.628906 2.78125 -3.828125 C 1.945312 -4.179688 1.335938 -4.578125 0.953125 -5.015625 C 0.566406 -5.453125 0.375 -5.988281 0.375 -6.625 C 0.375 -7.144531 0.519531 -7.609375 0.8125 -8.015625 C 1.101562 -8.421875 1.507812 -8.734375 2.03125 -8.953125 C 2.550781 -9.179688 3.148438 -9.296875 3.828125 -9.296875 C 4.390625 -9.296875 4.882812 -9.253906 5.3125 -9.171875 C 5.75 -9.085938 6.164062 -8.945312 6.5625 -8.75 L 6.5625 -6.734375 C 5.800781 -7.140625 5.035156 -7.34375 4.265625 -7.34375 C 3.847656 -7.34375 3.515625 -7.273438 3.265625 -7.140625 C 3.015625 -7.003906 2.890625 -6.8125 2.890625 -6.5625 C 2.890625 -6.300781 3.015625 -6.09375 3.265625 -5.9375 C 3.523438 -5.78125 3.992188 -5.566406 4.671875 -5.296875 C 5.285156 -5.046875 5.765625 -4.800781 6.109375 -4.5625 C 6.453125 -4.320312 6.703125 -4.039062 6.859375 -3.71875 C 7.015625 -3.394531 7.09375 -2.984375 7.09375 -2.484375 C 7.09375 -1.640625 6.785156 -0.976562 6.171875 -0.5 C 5.554688 -0.03125 4.640625 0.203125 3.421875 0.203125 Z M 3.421875 0.203125 "/></g></g></g><g fill="#003174" fill-opacity="1"><g transform="translate(111.567817, 165.239696)"><g><path d="M 2.703125 -7.171875 L 0.125 -7.171875 L 0.125 -9.109375 L 7.578125 -9.109375 L 7.578125 -7.171875 L 5 -7.171875 L 5 0 L 2.703125 0 Z M 2.703125 -7.171875 "/></g></g></g><g fill="#003174" fill-opacity="1"><g transform="translate(252.412752, 165.239696)"><g><path d="M 0.328125 -1.3125 L 1.765625 -2.625 L 2.390625 -3.1875 C 2.910156 -3.644531 3.304688 -4.003906 3.578125 -4.265625 C 3.847656 -4.535156 4.070312 -4.8125 4.25 -5.09375 C 4.425781 -5.375 4.515625 -5.648438 4.515625 -5.921875 C 4.515625 -6.722656 4.0625 -7.125 3.15625 -7.125 C 2.707031 -7.125 2.269531 -7.046875 1.84375 -6.890625 C 1.414062 -6.734375 1.019531 -6.515625 0.65625 -6.234375 L 0.65625 -8.4375 C 1.039062 -8.707031 1.492188 -8.914062 2.015625 -9.0625 C 2.535156 -9.21875 3.09375 -9.296875 3.6875 -9.296875 C 4.363281 -9.296875 4.945312 -9.171875 5.4375 -8.921875 C 5.9375 -8.671875 6.316406 -8.320312 6.578125 -7.875 C 6.835938 -7.4375 6.96875 -6.941406 6.96875 -6.390625 C 6.96875 -5.710938 6.8125 -5.125 6.5 -4.625 C 6.195312 -4.132812 5.703125 -3.570312 5.015625 -2.9375 L 3.859375 -1.890625 L 7.265625 -1.890625 L 7.265625 0 L 0.328125 0 Z M 0.328125 -1.3125 "/></g></g></g><g fill="#003174" fill-opacity="1"><g transform="translate(261.261583, 165.239696)"><g><path d="M 4.515625 0.203125 C 3.671875 0.203125 2.929688 0.015625 2.296875 -0.359375 C 1.671875 -0.742188 1.1875 -1.289062 0.84375 -2 C 0.5 -2.71875 0.328125 -3.566406 0.328125 -4.546875 C 0.328125 -5.523438 0.492188 -6.367188 0.828125 -7.078125 C 1.171875 -7.796875 1.65625 -8.34375 2.28125 -8.71875 C 2.914062 -9.101562 3.660156 -9.296875 4.515625 -9.296875 C 5.378906 -9.296875 6.125 -9.101562 6.75 -8.71875 C 7.382812 -8.34375 7.867188 -7.796875 8.203125 -7.078125 C 8.546875 -6.367188 8.71875 -5.523438 8.71875 -4.546875 C 8.71875 -3.566406 8.546875 -2.71875 8.203125 -2 C 7.859375 -1.289062 7.367188 -0.742188 6.734375 -0.359375 C 6.097656 0.015625 5.359375 0.203125 4.515625 0.203125 Z M 4.515625 -1.96875 C 5.097656 -1.96875 5.550781 -2.191406 5.875 -2.640625 C 6.195312 -3.097656 6.359375 -3.722656 6.359375 -4.515625 C 6.359375 -5.328125 6.195312 -5.960938 5.875 -6.421875 C 5.5625 -6.890625 5.109375 -7.125 4.515625 -7.125 C 3.929688 -7.125 3.476562 -6.890625 3.15625 -6.421875 C 2.84375 -5.960938 2.6875 -5.328125 2.6875 -4.515625 C 2.6875 -3.722656 2.847656 -3.097656 3.171875 -2.640625 C 3.492188 -2.191406 3.941406 -1.96875 4.515625 -1.96875 Z M 4.515625 -1.96875 "/></g></g></g><g fill="#003174" fill-opacity="1"><g transform="translate(271.569914, 165.239696)"><g><path d="M 0.328125 -1.3125 L 1.765625 -2.625 L 2.390625 -3.1875 C 2.910156 -3.644531 3.304688 -4.003906 3.578125 -4.265625 C 3.847656 -4.535156 4.070312 -4.8125 4.25 -5.09375 C 4.425781 -5.375 4.515625 -5.648438 4.515625 -5.921875 C 4.515625 -6.722656 4.0625 -7.125 3.15625 -7.125 C 2.707031 -7.125 2.269531 -7.046875 1.84375 -6.890625 C 1.414062 -6.734375 1.019531 -6.515625 0.65625 -6.234375 L 0.65625 -8.4375 C 1.039062 -8.707031 1.492188 -8.914062 2.015625 -9.0625 C 2.535156 -9.21875 3.09375 -9.296875 3.6875 -9.296875 C 4.363281 -9.296875 4.945312 -9.171875 5.4375 -8.921875 C 5.9375 -8.671875 6.316406 -8.320312 6.578125 -7.875 C 6.835938 -7.4375 6.96875 -6.941406 6.96875 -6.390625 C 6.96875 -5.710938 6.8125 -5.125 6.5 -4.625 C 6.195312 -4.132812 5.703125 -3.570312 5.015625 -2.9375 L 3.859375 -1.890625 L 7.265625 -1.890625 L 7.265625 0 L 0.328125 0 Z M 0.328125 -1.3125 "/></g></g></g><g fill="#003174" fill-opacity="1"><g transform="translate(280.418746, 165.239696)"><g><path d="M 4.25 -1.875 L 0.0625 -1.875 L 0.0625 -3.3125 L 4.375 -9.109375 L 6.65625 -9.109375 L 6.65625 -3.703125 L 7.953125 -3.703125 L 7.953125 -1.875 L 6.65625 -1.875 L 6.65625 0 L 4.25 0 Z M 4.59375 -3.703125 L 4.59375 -6.3125 L 2.6875 -3.703125 Z M 4.59375 -3.703125 "/></g></g></g><g fill="#003174" fill-opacity="1"><g transform="translate(126.782004, 248.215517)"><g><path d="M 1.1875 -18.515625 L 10.5625 -18.515625 C 12.351562 -18.515625 13.765625 -18.070312 14.796875 -17.1875 C 15.828125 -16.300781 16.34375 -15.039062 16.34375 -13.40625 C 16.34375 -12.625 16.164062 -11.894531 15.8125 -11.21875 C 15.457031 -10.550781 14.953125 -10.023438 14.296875 -9.640625 C 15.203125 -9.285156 15.863281 -8.773438 16.28125 -8.109375 C 16.707031 -7.453125 16.921875 -6.59375 16.921875 -5.53125 C 16.921875 -4.40625 16.65625 -3.421875 16.125 -2.578125 C 15.59375 -1.742188 14.878906 -1.101562 13.984375 -0.65625 C 13.097656 -0.21875 12.109375 0 11.015625 0 L 1.1875 0 Z M 9.53125 -11.171875 C 10.90625 -11.171875 11.59375 -11.816406 11.59375 -13.109375 C 11.59375 -13.835938 11.414062 -14.335938 11.0625 -14.609375 C 10.71875 -14.878906 10.179688 -15.015625 9.453125 -15.015625 L 5.875 -15.015625 L 5.875 -11.171875 Z M 9.828125 -3.5 C 10.617188 -3.5 11.207031 -3.644531 11.59375 -3.9375 C 11.988281 -4.238281 12.1875 -4.769531 12.1875 -5.53125 C 12.1875 -6.289062 11.984375 -6.84375 11.578125 -7.1875 C 11.171875 -7.53125 10.550781 -7.703125 9.71875 -7.703125 L 5.875 -7.703125 L 5.875 -3.5 Z M 9.828125 -3.5 "/></g></g></g><g fill="#003174" fill-opacity="1"><g transform="translate(146.927068, 248.215517)"><g><path d="M 1.1875 -18.515625 L 5.875 -18.515625 L 5.875 0 L 1.1875 0 Z M 1.1875 -18.515625 "/></g></g></g><g fill="#003174" fill-opacity="1"><g transform="translate(156.563475, 248.215517)"><g><path d="M 10.625 0.390625 C 8.75 0.390625 7.054688 -0.015625 5.546875 -0.828125 C 4.035156 -1.640625 2.84375 -2.769531 1.96875 -4.21875 C 1.09375 -5.675781 0.65625 -7.351562 0.65625 -9.25 C 0.65625 -11.132812 1.09375 -12.804688 1.96875 -14.265625 C 2.84375 -15.734375 4.035156 -16.875 5.546875 -17.6875 C 7.054688 -18.5 8.75 -18.90625 10.625 -18.90625 C 12.476562 -18.90625 14.160156 -18.5 15.671875 -17.6875 C 17.179688 -16.875 18.367188 -15.734375 19.234375 -14.265625 C 20.097656 -12.804688 20.53125 -11.132812 20.53125 -9.25 C 20.53125 -7.351562 20.097656 -5.675781 19.234375 -4.21875 C 18.367188 -2.769531 17.179688 -1.640625 15.671875 -0.828125 C 14.160156 -0.015625 12.476562 0.390625 10.625 0.390625 Z M 10.625 -4 C 11.5625 -4 12.414062 -4.207031 13.1875 -4.625 C 13.96875 -5.050781 14.585938 -5.660156 15.046875 -6.453125 C 15.503906 -7.253906 15.734375 -8.1875 15.734375 -9.25 C 15.734375 -10.300781 15.503906 -11.21875 15.046875 -12 C 14.597656 -12.789062 13.984375 -13.398438 13.203125 -13.828125 C 12.429688 -14.265625 11.570312 -14.484375 10.625 -14.484375 C 9.644531 -14.484375 8.765625 -14.265625 7.984375 -13.828125 C 7.210938 -13.398438 6.601562 -12.789062 6.15625 -12 C 5.707031 -11.21875 5.484375 -10.300781 5.484375 -9.25 C 5.484375 -8.1875 5.707031 -7.253906 6.15625 -6.453125 C 6.601562 -5.660156 7.21875 -5.050781 8 -4.625 C 8.789062 -4.207031 9.664062 -4 10.625 -4 Z M 10.625 -4 "/></g></g></g><g fill="#5ebb46" fill-opacity="1"><g transform="translate(187.816545, 250.104287)"><g><path d="M 1.1875 -18.515625 L 7.84375 -18.515625 C 9.875 -18.515625 11.644531 -18.140625 13.15625 -17.390625 C 14.675781 -16.648438 15.847656 -15.585938 16.671875 -14.203125 C 17.492188 -12.816406 17.90625 -11.195312 17.90625 -9.34375 C 17.90625 -6.269531 17.003906 -3.941406 15.203125 -2.359375 C 13.398438 -0.785156 10.898438 0 7.703125 0 L 1.1875 0 Z M 8.109375 -3.953125 C 9.710938 -3.953125 10.941406 -4.4375 11.796875 -5.40625 C 12.648438 -6.375 13.078125 -7.6875 13.078125 -9.34375 C 13.078125 -10.863281 12.648438 -12.113281 11.796875 -13.09375 C 10.941406 -14.070312 9.765625 -14.5625 8.265625 -14.5625 L 5.875 -14.5625 L 5.875 -3.953125 Z M 8.109375 -3.953125 "/></g></g></g><g fill="#5ebb46" fill-opacity="1"><g transform="translate(208.945748, 250.104287)"><g><path d="M 1.1875 -18.515625 L 7.84375 -18.515625 C 9.875 -18.515625 11.644531 -18.140625 13.15625 -17.390625 C 14.675781 -16.648438 15.847656 -15.585938 16.671875 -14.203125 C 17.492188 -12.816406 17.90625 -11.195312 17.90625 -9.34375 C 17.90625 -6.269531 17.003906 -3.941406 15.203125 -2.359375 C 13.398438 -0.785156 10.898438 0 7.703125 0 L 1.1875 0 Z M 8.109375 -3.953125 C 9.710938 -3.953125 10.941406 -4.4375 11.796875 -5.40625 C 12.648438 -6.375 13.078125 -7.6875 13.078125 -9.34375 C 13.078125 -10.863281 12.648438 -12.113281 11.796875 -13.09375 C 10.941406 -14.070312 9.765625 -14.5625 8.265625 -14.5625 L 5.875 -14.5625 L 5.875 -3.953125 Z M 8.109375 -3.953125 "/></g></g></g><g fill="#5ebb46" fill-opacity="1"><g transform="translate(230.07495, 250.104287)"><g><path d="M 1.1875 -18.515625 L 7.84375 -18.515625 C 9.875 -18.515625 11.644531 -18.140625 13.15625 -17.390625 C 14.675781 -16.648438 15.847656 -15.585938 16.671875 -14.203125 C 17.492188 -12.816406 17.90625 -11.195312 17.90625 -9.34375 C 17.90625 -6.269531 17.003906 -3.941406 15.203125 -2.359375 C 13.398438 -0.785156 10.898438 0 7.703125 0 L 1.1875 0 Z M 8.109375 -3.953125 C 9.710938 -3.953125 10.941406 -4.4375 11.796875 -5.40625 C 12.648438 -6.375 13.078125 -7.6875 13.078125 -9.34375 C 13.078125 -10.863281 12.648438 -12.113281 11.796875 -13.09375 C 10.941406 -14.070312 9.765625 -14.5625 8.265625 -14.5625 L 5.875 -14.5625 L 5.875 -3.953125 Z M 8.109375 -3.953125 "/></g></g></g></svg>