<svg xmlns="http://www.w3.org/2000/svg" xmlns:xlink="http://www.w3.org/1999/xlink" width="500" zoomAndPan="magnify" viewBox="0 0 375 374.999991" height="500" preserveAspectRatio="xMidYMid meet" version="1.0"><defs><g/></defs><path fill="#ff1616" d="M 194.457031 114.558594 L 231.964844 152.066406 C 235.792969 155.894531 235.792969 162.140625 231.964844 165.972656 L 194.457031 203.476562 C 190.628906 207.308594 184.382812 207.308594 180.554688 203.476562 L 143.046875 165.972656 C 139.21875 162.140625 139.21875 155.894531 143.046875 152.066406 L 180.554688 114.558594 C 184.382812 110.730469 190.628906 110.730469 194.457031 114.558594 Z M 194.457031 114.558594 " fill-opacity="1" fill-rule="nonzero"/><path fill="#1a1a1a" d="M 187.503906 146.199219 L 192.910156 152.433594 L 202.628906 141.210938 L 193.125 123.941406 L 209.753906 139.148438 L 197.824219 155.363281 L 212.039062 147.507812 L 210.484375 135.019531 L 217.980469 151.851562 L 204.089844 159.453125 L 217.066406 159.34375 L 209.207031 184.214844 L 210.394531 164.667969 L 201.898438 164.339844 L 208.65625 169.554688 L 193.945312 194.09375 L 200.984375 170.09375 L 197.054688 163.960938 L 187.503906 174.980469 L 177.957031 163.960938 L 174.027344 170.09375 L 181.0625 194.09375 L 166.351562 169.554688 L 173.113281 164.339844 L 164.617188 164.667969 L 165.804688 184.214844 L 157.945312 159.34375 L 170.921875 159.453125 L 157.03125 151.851562 L 164.523438 135.019531 L 162.972656 147.507812 L 177.183594 155.363281 L 165.253906 139.148438 L 181.886719 123.941406 L 172.382812 141.210938 L 182.101562 152.433594 Z M 187.503906 146.199219 " fill-opacity="1" fill-rule="nonzero"/><path fill="#ff1616" d="M 187.503906 167.492188 L 193.476562 159.292969 L 187.503906 151.09375 L 181.535156 159.292969 Z M 187.503906 167.492188 " fill-opacity="1" fill-rule="nonzero"/><g fill="#ffffff" fill-opacity="1"><g transform="translate(121.299391, 243.347158)"><g><path d="M 10.28125 0 C 16.3125 0 17.921875 -3.234375 17.921875 -6.359375 C 17.921875 -8.46875 16.890625 -10.546875 14.359375 -11.4375 C 16.21875 -12.515625 17.15625 -14.359375 17.15625 -16.53125 C 17.15625 -19.796875 15.3125 -22.34375 9.90625 -22.34375 L 2.8125 -22.34375 C 2.40625 -22.34375 2.203125 -22.125 2.203125 -21.734375 L 2.203125 -0.59375 C 2.203125 -0.203125 2.40625 0 2.8125 0 Z M 6.296875 -18.71875 L 9.8125 -18.71875 C 12.6875 -18.71875 13.421875 -17.5625 13.421875 -15.953125 C 13.421875 -14.21875 12.6875 -13.03125 10.296875 -13.03125 L 6.296875 -13.03125 Z M 6.296875 -9.78125 L 10.359375 -9.78125 C 12.9375 -9.78125 13.8125 -8.5 13.8125 -6.78125 C 13.8125 -5.140625 13.21875 -3.625 10.171875 -3.625 L 6.296875 -3.625 Z M 6.296875 -9.78125 "/></g></g></g><g fill="#ffffff" fill-opacity="1"><g transform="translate(141.263036, 243.347158)"><g><path d="M 5.703125 0 C 6.09375 0 6.296875 -0.203125 6.296875 -0.59375 L 6.296875 -21.734375 C 6.296875 -22.125 6.09375 -22.34375 5.703125 -22.34375 L 2.8125 -22.34375 C 2.40625 -22.34375 2.203125 -22.125 2.203125 -21.734375 L 2.203125 -0.59375 C 2.203125 -0.203125 2.40625 0 2.8125 0 Z M 5.703125 0 "/></g></g></g><g fill="#ffffff" fill-opacity="1"><g transform="translate(150.364914, 243.347158)"><g><path d="M 13.09375 0.53125 C 19.890625 0.53125 24.921875 -4.1875 24.921875 -11.171875 C 24.921875 -18.140625 19.890625 -22.859375 13.09375 -22.859375 C 6.296875 -22.859375 1.28125 -18.140625 1.28125 -11.171875 C 1.28125 -4.1875 6.296875 0.53125 13.09375 0.53125 Z M 13.09375 -3.265625 C 8.703125 -3.265625 5.375 -6.421875 5.375 -11.171875 C 5.375 -15.921875 8.703125 -19.0625 13.09375 -19.0625 C 17.484375 -19.0625 20.84375 -15.921875 20.84375 -11.171875 C 20.84375 -6.40625 17.484375 -3.265625 13.09375 -3.265625 Z M 13.09375 -3.265625 "/></g></g></g><g fill="#ffffff" fill-opacity="1"><g transform="translate(177.191689, 243.347158)"><g/></g></g><g fill="#ffffff" fill-opacity="1"><g transform="translate(186.715235, 243.347158)"><g><path d="M 8.75 0 C 16.4375 0 20.59375 -4.203125 20.59375 -11.1875 C 20.59375 -18.234375 16.375 -22.34375 8.75 -22.34375 L 2.8125 -22.34375 C 2.40625 -22.34375 2.203125 -22.125 2.203125 -21.734375 L 2.203125 -0.59375 C 2.203125 -0.203125 2.40625 0 2.8125 0 Z M 6.328125 -18.71875 L 8.734375 -18.71875 C 13.6875 -18.71875 16.5 -16.0625 16.5 -11.21875 C 16.5 -6.390625 13.6875 -3.625 8.734375 -3.625 L 6.328125 -3.625 Z M 6.328125 -18.71875 "/></g></g></g><g fill="#ffffff" fill-opacity="1"><g transform="translate(209.238011, 243.347158)"><g><path d="M 8.75 0 C 16.4375 0 20.59375 -4.203125 20.59375 -11.1875 C 20.59375 -18.234375 16.375 -22.34375 8.75 -22.34375 L 2.8125 -22.34375 C 2.40625 -22.34375 2.203125 -22.125 2.203125 -21.734375 L 2.203125 -0.59375 C 2.203125 -0.203125 2.40625 0 2.8125 0 Z M 6.328125 -18.71875 L 8.734375 -18.71875 C 13.6875 -18.71875 16.5 -16.0625 16.5 -11.21875 C 16.5 -6.390625 13.6875 -3.625 8.734375 -3.625 L 6.328125 -3.625 Z M 6.328125 -18.71875 "/></g></g></g><g fill="#ffffff" fill-opacity="1"><g transform="translate(231.760793, 243.347158)"><g><path d="M 8.75 0 C 16.4375 0 20.59375 -4.203125 20.59375 -11.1875 C 20.59375 -18.234375 16.375 -22.34375 8.75 -22.34375 L 2.8125 -22.34375 C 2.40625 -22.34375 2.203125 -22.125 2.203125 -21.734375 L 2.203125 -0.59375 C 2.203125 -0.203125 2.40625 0 2.8125 0 Z M 6.328125 -18.71875 L 8.734375 -18.71875 C 13.6875 -18.71875 16.5 -16.0625 16.5 -11.21875 C 16.5 -6.390625 13.6875 -3.625 8.734375 -3.625 L 6.328125 -3.625 Z M 6.328125 -18.71875 "/></g></g></g><g fill="#ffffff" fill-opacity="1"><g transform="translate(119.466052, 260.791692)"><g><path d="M 0.828125 0 L 0.828125 -6.078125 L 4.4375 -6.078125 L 4.4375 -5.40625 L 1.59375 -5.40625 L 1.59375 -3.515625 L 2.5 -3.515625 C 3.101562 -3.515625 3.570312 -3.4375 3.90625 -3.28125 C 4.238281 -3.132812 4.46875 -2.929688 4.59375 -2.671875 C 4.726562 -2.410156 4.796875 -2.113281 4.796875 -1.78125 C 4.796875 -1.21875 4.628906 -0.78125 4.296875 -0.46875 C 3.960938 -0.15625 3.398438 0 2.609375 0 Z M 1.59375 -0.65625 L 2.53125 -0.65625 C 3.070312 -0.65625 3.453125 -0.742188 3.671875 -0.921875 C 3.898438 -1.109375 4.015625 -1.394531 4.015625 -1.78125 C 4.015625 -2.175781 3.890625 -2.453125 3.640625 -2.609375 C 3.398438 -2.765625 2.988281 -2.84375 2.40625 -2.84375 L 1.59375 -2.84375 Z M 1.59375 -0.65625 "/></g></g></g><g fill="#ffffff" fill-opacity="1"><g transform="translate(130.451954, 260.791692)"><g><path d="M 4.21875 0 L 0.828125 0 L 0.828125 -6.078125 L 4.21875 -6.078125 L 4.21875 -5.40625 L 1.59375 -5.40625 L 1.59375 -3.515625 L 4.078125 -3.515625 L 4.078125 -2.84375 L 1.59375 -2.84375 L 1.59375 -0.671875 L 4.21875 -0.671875 Z M 4.21875 0 "/></g></g></g><g fill="#ffffff" fill-opacity="1"><g transform="translate(140.935785, 260.791692)"><g><path d="M 4.421875 -4.65625 C 4.421875 -4.238281 4.289062 -3.910156 4.03125 -3.671875 C 3.769531 -3.429688 3.421875 -3.273438 2.984375 -3.203125 L 2.984375 -3.171875 C 3.492188 -3.109375 3.878906 -2.945312 4.140625 -2.6875 C 4.410156 -2.4375 4.546875 -2.113281 4.546875 -1.71875 C 4.546875 -1.1875 4.34375 -0.753906 3.9375 -0.421875 C 3.53125 -0.0859375 2.914062 0.078125 2.09375 0.078125 C 1.757812 0.078125 1.441406 0.0507812 1.140625 0 C 0.847656 -0.0390625 0.578125 -0.125 0.328125 -0.25 L 0.328125 -0.9375 C 0.585938 -0.8125 0.875 -0.710938 1.1875 -0.640625 C 1.507812 -0.578125 1.8125 -0.546875 2.09375 -0.546875 C 2.632812 -0.546875 3.046875 -0.644531 3.328125 -0.84375 C 3.609375 -1.050781 3.75 -1.34375 3.75 -1.71875 C 3.75 -2.101562 3.582031 -2.382812 3.25 -2.5625 C 2.925781 -2.738281 2.46875 -2.828125 1.875 -2.828125 L 1 -2.828125 L 1 -3.46875 L 1.828125 -3.46875 C 2.429688 -3.46875 2.878906 -3.566406 3.171875 -3.765625 C 3.472656 -3.972656 3.625 -4.242188 3.625 -4.578125 C 3.625 -4.890625 3.507812 -5.125 3.28125 -5.28125 C 3.0625 -5.445312 2.769531 -5.53125 2.40625 -5.53125 C 2.019531 -5.53125 1.703125 -5.484375 1.453125 -5.390625 C 1.203125 -5.296875 0.957031 -5.171875 0.71875 -5.015625 L 0.34375 -5.53125 C 0.582031 -5.707031 0.875 -5.859375 1.21875 -5.984375 C 1.570312 -6.109375 1.96875 -6.171875 2.40625 -6.171875 C 3.0625 -6.171875 3.5625 -6.023438 3.90625 -5.734375 C 4.25 -5.453125 4.421875 -5.09375 4.421875 -4.65625 Z M 4.421875 -4.65625 "/></g></g></g><g fill="#ffffff" fill-opacity="1"><g transform="translate(151.691926, 260.791692)"><g/></g></g><g fill="#ffffff" fill-opacity="1"><g transform="translate(159.639889, 260.791692)"><g><path d="M 0.828125 -6.078125 L 2.5625 -6.078125 C 3.320312 -6.078125 3.894531 -5.960938 4.28125 -5.734375 C 4.675781 -5.515625 4.875 -5.128906 4.875 -4.578125 C 4.875 -4.210938 4.773438 -3.910156 4.578125 -3.671875 C 4.378906 -3.441406 4.09375 -3.296875 3.71875 -3.234375 L 3.71875 -3.1875 C 3.96875 -3.132812 4.195312 -3.054688 4.40625 -2.953125 C 4.613281 -2.847656 4.773438 -2.695312 4.890625 -2.5 C 5.015625 -2.300781 5.078125 -2.046875 5.078125 -1.734375 C 5.078125 -1.179688 4.882812 -0.753906 4.5 -0.453125 C 4.125 -0.148438 3.613281 0 2.96875 0 L 0.828125 0 Z M 1.59375 -3.484375 L 2.71875 -3.484375 C 3.226562 -3.484375 3.582031 -3.566406 3.78125 -3.734375 C 3.976562 -3.910156 4.078125 -4.160156 4.078125 -4.484375 C 4.078125 -4.816406 3.957031 -5.054688 3.71875 -5.203125 C 3.488281 -5.347656 3.113281 -5.421875 2.59375 -5.421875 L 1.59375 -5.421875 Z M 1.59375 -2.859375 L 1.59375 -0.640625 L 2.8125 -0.640625 C 3.351562 -0.640625 3.726562 -0.742188 3.9375 -0.953125 C 4.144531 -1.171875 4.25 -1.445312 4.25 -1.78125 C 4.25 -2.101562 4.140625 -2.363281 3.921875 -2.5625 C 3.710938 -2.757812 3.328125 -2.859375 2.765625 -2.859375 Z M 1.59375 -2.859375 "/></g></g></g><g fill="#ffffff" fill-opacity="1"><g transform="translate(170.923627, 260.791692)"><g><path d="M 2.4375 -6.078125 C 3.226562 -6.078125 3.804688 -5.921875 4.171875 -5.609375 C 4.535156 -5.296875 4.71875 -4.859375 4.71875 -4.296875 C 4.71875 -3.960938 4.640625 -3.644531 4.484375 -3.34375 C 4.335938 -3.050781 4.085938 -2.816406 3.734375 -2.640625 C 3.378906 -2.460938 2.898438 -2.375 2.296875 -2.375 L 1.59375 -2.375 L 1.59375 0 L 0.828125 0 L 0.828125 -6.078125 Z M 2.375 -5.421875 L 1.59375 -5.421875 L 1.59375 -3.015625 L 2.203125 -3.015625 C 2.785156 -3.015625 3.21875 -3.109375 3.5 -3.296875 C 3.78125 -3.484375 3.921875 -3.800781 3.921875 -4.25 C 3.921875 -4.644531 3.796875 -4.9375 3.546875 -5.125 C 3.296875 -5.320312 2.90625 -5.421875 2.375 -5.421875 Z M 2.375 -5.421875 "/></g></g></g><g fill="#ffffff" fill-opacity="1"><g transform="translate(181.824436, 260.791692)"><g><path d="M 4.21875 0 L 0.828125 0 L 0.828125 -6.078125 L 4.21875 -6.078125 L 4.21875 -5.40625 L 1.59375 -5.40625 L 1.59375 -3.515625 L 4.078125 -3.515625 L 4.078125 -2.84375 L 1.59375 -2.84375 L 1.59375 -0.671875 L 4.21875 -0.671875 Z M 4.21875 0 "/></g></g></g><g fill="#ffffff" fill-opacity="1"><g transform="translate(192.308267, 260.791692)"><g><path d="M 4.921875 -6.078125 L 4.921875 -0.6875 L 5.703125 -0.6875 L 5.703125 1.59375 L 4.96875 1.59375 L 4.96875 0 L 0.78125 0 L 0.78125 1.59375 L 0.046875 1.59375 L 0.046875 -0.6875 L 0.515625 -0.6875 C 0.722656 -1.03125 0.914062 -1.421875 1.09375 -1.859375 C 1.28125 -2.296875 1.445312 -2.753906 1.59375 -3.234375 C 1.738281 -3.710938 1.851562 -4.191406 1.9375 -4.671875 C 2.03125 -5.160156 2.085938 -5.628906 2.109375 -6.078125 Z M 4.171875 -5.390625 L 2.78125 -5.390625 C 2.757812 -5.054688 2.703125 -4.679688 2.609375 -4.265625 C 2.523438 -3.859375 2.414062 -3.4375 2.28125 -3 C 2.15625 -2.5625 2.007812 -2.140625 1.84375 -1.734375 C 1.675781 -1.335938 1.503906 -0.988281 1.328125 -0.6875 L 4.171875 -0.6875 Z M 4.171875 -5.390625 "/></g></g></g><g fill="#ffffff" fill-opacity="1"><g transform="translate(203.940899, 260.791692)"><g><path d="M 0.828125 -6.078125 L 1.546875 -6.078125 L 1.546875 -2.734375 C 1.546875 -2.546875 1.539062 -2.335938 1.53125 -2.109375 C 1.53125 -1.878906 1.523438 -1.664062 1.515625 -1.46875 C 1.503906 -1.269531 1.492188 -1.128906 1.484375 -1.046875 L 1.53125 -1.046875 L 4.875 -6.078125 L 5.71875 -6.078125 L 5.71875 0 L 5 0 L 5 -3.296875 C 5 -3.503906 5.003906 -3.726562 5.015625 -3.96875 C 5.023438 -4.207031 5.035156 -4.425781 5.046875 -4.625 C 5.054688 -4.832031 5.066406 -4.976562 5.078125 -5.0625 L 5.046875 -5.0625 L 1.6875 0 L 0.828125 0 Z M 0.828125 -6.078125 "/></g></g></g><g fill="#ffffff" fill-opacity="1"><g transform="translate(216.22877, 260.791692)"><g><path d="M 2.75 0 L 1.984375 0 L 1.984375 -5.40625 L 0.078125 -5.40625 L 0.078125 -6.078125 L 4.640625 -6.078125 L 4.640625 -5.40625 L 2.75 -5.40625 Z M 2.75 0 "/></g></g></g><g fill="#ffffff" fill-opacity="1"><g transform="translate(226.712601, 260.791692)"><g><path d="M 4.21875 0 L 0.828125 0 L 0.828125 -6.078125 L 4.21875 -6.078125 L 4.21875 -5.40625 L 1.59375 -5.40625 L 1.59375 -3.515625 L 4.078125 -3.515625 L 4.078125 -2.84375 L 1.59375 -2.84375 L 1.59375 -0.671875 L 4.21875 -0.671875 Z M 4.21875 0 "/></g></g></g><g fill="#ffffff" fill-opacity="1"><g transform="translate(237.196432, 260.791692)"><g><path d="M 5.203125 0 L 4.4375 0 L 4.4375 -5.40625 L 2.515625 -5.40625 C 2.460938 -4.988281 2.40625 -4.546875 2.34375 -4.078125 C 2.28125 -3.617188 2.21875 -3.175781 2.15625 -2.75 C 2.09375 -2.332031 2.03125 -1.976562 1.96875 -1.6875 C 1.894531 -1.300781 1.800781 -0.972656 1.6875 -0.703125 C 1.582031 -0.441406 1.441406 -0.242188 1.265625 -0.109375 C 1.085938 0.0234375 0.851562 0.09375 0.5625 0.09375 C 0.46875 0.09375 0.367188 0.0820312 0.265625 0.0625 C 0.171875 0.0390625 0.0859375 0.015625 0.015625 -0.015625 L 0.015625 -0.640625 C 0.078125 -0.617188 0.144531 -0.597656 0.21875 -0.578125 C 0.300781 -0.554688 0.390625 -0.546875 0.484375 -0.546875 C 0.648438 -0.546875 0.78125 -0.613281 0.875 -0.75 C 0.976562 -0.894531 1.054688 -1.066406 1.109375 -1.265625 C 1.160156 -1.472656 1.210938 -1.679688 1.265625 -1.890625 C 1.304688 -2.109375 1.359375 -2.425781 1.421875 -2.84375 C 1.492188 -3.257812 1.566406 -3.742188 1.640625 -4.296875 C 1.710938 -4.859375 1.789062 -5.453125 1.875 -6.078125 L 5.203125 -6.078125 Z M 5.203125 0 "/></g></g></g><g fill="#ffffff" fill-opacity="1"><g transform="translate(248.973733, 260.791692)"><g><path d="M 0.828125 -6.078125 L 1.546875 -6.078125 L 1.546875 -2.734375 C 1.546875 -2.546875 1.539062 -2.335938 1.53125 -2.109375 C 1.53125 -1.878906 1.523438 -1.664062 1.515625 -1.46875 C 1.503906 -1.269531 1.492188 -1.128906 1.484375 -1.046875 L 1.53125 -1.046875 L 4.875 -6.078125 L 5.71875 -6.078125 L 5.71875 0 L 5 0 L 5 -3.296875 C 5 -3.503906 5.003906 -3.726562 5.015625 -3.96875 C 5.023438 -4.207031 5.035156 -4.425781 5.046875 -4.625 C 5.054688 -4.832031 5.066406 -4.976562 5.078125 -5.0625 L 5.046875 -5.0625 L 1.6875 0 L 0.828125 0 Z M 0.828125 -6.078125 "/></g></g></g></svg>