<svg xmlns="http://www.w3.org/2000/svg" xmlns:xlink="http://www.w3.org/1999/xlink" width="500" zoomAndPan="magnify" viewBox="0 0 375 374.999991" height="500" preserveAspectRatio="xMidYMid meet" version="1.0"><path fill="#ff1616" d="M 197.226562 125.359375 L 249.65625 177.789062 C 255.011719 183.144531 255.011719 191.875 249.65625 197.226562 L 197.226562 249.65625 C 191.875 255.011719 183.144531 255.011719 177.789062 249.65625 L 125.359375 197.226562 C 120.007812 191.875 120.007812 183.144531 125.359375 177.789062 L 177.789062 125.359375 C 183.144531 120.007812 191.875 120.007812 197.226562 125.359375 Z M 197.226562 125.359375 " fill-opacity="1" fill-rule="nonzero"/><path fill="#1a1a1a" d="M 187.507812 169.589844 L 195.0625 178.304688 L 208.648438 162.613281 L 195.363281 138.476562 L 218.613281 159.730469 L 201.9375 182.394531 L 221.804688 171.417969 L 219.632812 153.960938 L 230.109375 177.492188 L 210.691406 188.117188 L 228.832031 187.964844 L 217.847656 222.726562 L 219.503906 195.402344 L 207.625 194.949219 L 217.078125 202.234375 L 196.511719 236.539062 L 206.347656 202.992188 L 200.855469 194.417969 L 187.507812 209.820312 L 174.160156 194.417969 L 168.667969 202.992188 L 178.503906 236.539062 L 157.9375 202.234375 L 167.390625 194.949219 L 155.511719 195.402344 L 157.171875 222.726562 L 146.1875 187.964844 L 164.324219 188.117188 L 144.910156 177.492188 L 155.382812 153.960938 L 153.214844 171.417969 L 173.082031 182.394531 L 156.40625 159.730469 L 179.652344 138.476562 L 166.371094 162.613281 L 179.957031 178.304688 Z M 187.507812 169.589844 " fill-opacity="1" fill-rule="nonzero"/><path fill="#ff1616" d="M 187.507812 199.351562 L 195.855469 187.890625 L 187.507812 176.429688 L 179.160156 187.890625 Z M 187.507812 199.351562 " fill-opacity="1" fill-rule="nonzero"/></svg>