<svg xmlns="http://www.w3.org/2000/svg" xmlns:xlink="http://www.w3.org/1999/xlink" width="500" zoomAndPan="magnify" viewBox="0 0 375 374.999991" height="500" preserveAspectRatio="xMidYMid meet" version="1.0"><path fill="#ff1616" d="M 214.53125 14.902344 L 360.171875 160.542969 C 375.042969 175.410156 375.042969 199.660156 360.171875 214.53125 L 214.53125 360.171875 C 199.664062 375.042969 175.410156 375.042969 160.542969 360.171875 L 14.902344 214.53125 C 0.03125 199.660156 0.03125 175.410156 14.902344 160.542969 L 160.542969 14.902344 C 175.410156 0.03125 199.664062 0.03125 214.53125 14.902344 Z M 214.53125 14.902344 " fill-opacity="1" fill-rule="nonzero"/><path fill="#1a1a1a" d="M 187.535156 137.757812 L 208.519531 161.972656 L 246.257812 118.382812 L 209.355469 51.335938 L 273.933594 110.371094 L 227.613281 173.335938 L 282.804688 142.839844 L 276.773438 94.347656 L 305.867188 159.707031 L 251.933594 189.222656 L 302.320312 188.800781 L 271.804688 285.367188 L 276.417969 209.464844 L 243.421875 208.199219 L 269.675781 228.4375 L 212.546875 323.734375 L 239.871094 230.546875 L 224.617188 206.730469 L 187.535156 249.515625 L 150.457031 206.730469 L 135.203125 230.546875 L 162.523438 323.734375 L 105.398438 228.4375 L 131.65625 208.199219 L 98.65625 209.464844 L 103.269531 285.367188 L 72.753906 188.800781 L 123.140625 189.222656 L 69.207031 159.707031 L 98.300781 94.347656 L 92.269531 142.839844 L 147.460938 173.335938 L 101.140625 110.371094 L 165.71875 51.335938 L 128.816406 118.382812 L 166.554688 161.972656 Z M 187.535156 137.757812 " fill-opacity="1" fill-rule="nonzero"/><path fill="#ff1616" d="M 187.535156 220.433594 L 210.726562 188.597656 L 187.535156 156.757812 L 164.351562 188.597656 Z M 187.535156 220.433594 " fill-opacity="1" fill-rule="nonzero"/></svg>